<?xml version="1.0" encoding="UTF-8" standalone="no"?>
<svg
   xmlns:dc="http://purl.org/dc/elements/1.1/"
   xmlns:cc="http://creativecommons.org/ns#"
   xmlns:rdf="http://www.w3.org/1999/02/22-rdf-syntax-ns#"
   xmlns:svg="http://www.w3.org/2000/svg"
   xmlns="http://www.w3.org/2000/svg"
   xmlns:sodipodi="http://sodipodi.sourceforge.net/DTD/sodipodi-0.dtd"
   xmlns:inkscape="http://www.inkscape.org/namespaces/inkscape"
   style="fill:none;stroke:currentColor;stroke-width:2;stroke-linecap:round;stroke-linejoin:round"
   sodipodi:docname="3star.svg"
   id="svg4"
   version="1.1"
   class="feather feather-star"
   viewBox="0 0 120 24"
   height="24"
   width="120"
   inkscape:version="0.92.1 r15371">
  <metadata
     id="metadata10">
    <rdf:RDF>
      <cc:Work
         rdf:about="">
        <dc:format>image/svg+xml</dc:format>
        <dc:type
           rdf:resource="http://purl.org/dc/dcmitype/StillImage" />
        <dc:title />
      </cc:Work>
    </rdf:RDF>
  </metadata>
  <defs
     id="defs8" />
  <sodipodi:namedview
     inkscape:current-layer="svg4"
     inkscape:window-maximized="0"
     inkscape:window-y="0"
     inkscape:window-x="0"
     inkscape:cy="12"
     inkscape:cx="42.364942"
     inkscape:zoom="9.8333333"
     inkscape:guide-bbox="true"
     showguides="true"
     showgrid="false"
     id="namedview6"
     inkscape:window-height="949"
     inkscape:window-width="1730"
     inkscape:pageshadow="2"
     inkscape:pageopacity="0"
     guidetolerance="10"
     gridtolerance="10"
     objecttolerance="10"
     borderopacity="1"
     bordercolor="#666666"
     pagecolor="#ffffff"
     inkscape:measure-start="53.2881,45.2542"
     inkscape:measure-end="43.4237,26.2373">
    <sodipodi:guide
       position="60.101695,21.864407"
       orientation="0,1"
       id="guide4502"
       inkscape:locked="false" />
  </sodipodi:namedview>
  <polygon
     points="18.18,21.02 12,17.77 5.82,21.02 7,14.14 2,9.27 8.91,8.26 12,2 15.09,8.26 22,9.27 17,14.14 "
     id="polygon2"
     transform="translate(-0.20338983,0.135593)"
     style="fill:#ffff00" />
  <polygon
     transform="translate(23.618642,0.135593)"
     style="fill:#ffff00;stroke:currentColor;stroke-width:2;stroke-linecap:round;stroke-linejoin:round"
     points="15.09,8.26 22,9.27 17,14.14 18.18,21.02 12,17.77 5.82,21.02 7,14.14 2,9.27 8.91,8.26 12,2 "
     id="polygon2-3" />
  <polygon
     transform="translate(47.440673,0.135593)"
     style="fill:#ffff00;stroke:currentColor;stroke-width:2;stroke-linecap:round;stroke-linejoin:round"
     points="7,14.14 2,9.27 8.91,8.26 12,2 15.09,8.26 22,9.27 17,14.14 18.18,21.02 12,17.77 5.82,21.02 "
     id="polygon2-3-6" />
  <polygon
     transform="translate(71.262703,0.135593)"
     style="fill:none;stroke:currentColor;stroke-width:2;stroke-linecap:round;stroke-linejoin:round"
     points="7,14.14 2,9.27 8.91,8.26 12,2 15.09,8.26 22,9.27 17,14.14 18.18,21.02 12,17.77 5.82,21.02 "
     id="polygon2-3-7" />
  <polygon
     transform="translate(95.084739,0.135593)"
     style="fill:none;stroke:currentColor;stroke-width:2;stroke-linecap:round;stroke-linejoin:round"
     points="7,14.14 2,9.27 8.91,8.26 12,2 15.09,8.26 22,9.27 17,14.14 18.18,21.02 12,17.77 5.82,21.02 "
     id="polygon2-3-5" />
</svg>
