<?xml version="1.0" encoding="UTF-8" standalone="no"?>
<svg
   xmlns:osb="http://www.openswatchbook.org/uri/2009/osb"
   xmlns:dc="http://purl.org/dc/elements/1.1/"
   xmlns:cc="http://creativecommons.org/ns#"
   xmlns:rdf="http://www.w3.org/1999/02/22-rdf-syntax-ns#"
   xmlns:svg="http://www.w3.org/2000/svg"
   xmlns="http://www.w3.org/2000/svg"
   xmlns:sodipodi="http://sodipodi.sourceforge.net/DTD/sodipodi-0.dtd"
   xmlns:inkscape="http://www.inkscape.org/namespaces/inkscape"
   width="24"
   height="24"
   viewBox="0 0 24 24"
   fill="none"
   stroke="currentColor"
   stroke-width="2"
   stroke-linecap="round"
   stroke-linejoin="round"
   class="feather feather-home"
   version="1.1"
   id="svg6"
   sodipodi:docname="company.svg"
   inkscape:version="0.92.1 r15371">
  <metadata
     id="metadata12">
    <rdf:RDF>
      <cc:Work
         rdf:about="">
        <dc:format>image/svg+xml</dc:format>
        <dc:type
           rdf:resource="http://purl.org/dc/dcmitype/StillImage" />
      </cc:Work>
    </rdf:RDF>
  </metadata>
  <defs
     id="defs10">
    <linearGradient
       id="linearGradient5963"
       osb:paint="solid">
      <stop
         style="stop-color:#000000;stop-opacity:1;"
         offset="0"
         id="stop5961" />
    </linearGradient>
    <linearGradient
       id="linearGradient5957"
       osb:paint="solid">
      <stop
         style="stop-color:#27850f;stop-opacity:1;"
         offset="0"
         id="stop5955" />
    </linearGradient>
  </defs>
  <sodipodi:namedview
     pagecolor="#ffffff"
     bordercolor="#666666"
     borderopacity="1"
     objecttolerance="10"
     gridtolerance="10"
     guidetolerance="10"
     inkscape:pageopacity="0"
     inkscape:pageshadow="2"
     inkscape:window-width="1920"
     inkscape:window-height="1171"
     id="namedview8"
     showgrid="false"
     inkscape:zoom="9.8333333"
     inkscape:cx="12.762712"
     inkscape:cy="12"
     inkscape:window-x="0"
     inkscape:window-y="0"
     inkscape:window-maximized="1"
     inkscape:current-layer="svg6" />
  <path
     d="M3 9l9-7 9 7v11a2 2 0 0 1-2 2H5a2 2 0 0 1-2-2z"
     id="path2" />
  <g
     id="g4568"
     transform="matrix(1.1057918,0,0,1.1334429,-25.437579,47.682964)">
    <g
       transform="matrix(0.47494842,0,0,0.57662883,28.076114,-36.93648)"
       id="g4497"
       style="fill:none;stroke:#000000;stroke-width:2;stroke-linecap:round;stroke-linejoin:round">
      <path
         inkscape:connector-curvature="0"
         d="M 17,21 V 19 A 4,4 0 0 0 13,15 H 5 a 4,4 0 0 0 -4,4 v 2"
         id="path2-3" />
      <circle
         cx="9"
         cy="7"
         r="4"
         id="circle4" />
      <path
         inkscape:connector-curvature="0"
         d="M 23,21 V 19 A 4,4 0 0 0 20,15.13"
         id="path6" />
      <path
         inkscape:connector-curvature="0"
         d="m 16,3.13 a 4,4 0 0 1 0,7.75"
         id="path8" />
    </g>
  </g>
</svg>
